HIERARCHY
ROOT hip
{
	OFFSET 0.000000 0.000000 0.000000 
	CHANNELS 6 Xposition Yposition Zposition Xrotation Zrotation Yrotation
	JOINT abdomen
	{
		OFFSET 0.000000 3.402643 0.000000 
		CHANNELS 3 Xrotation Zrotation Yrotation
		JOINT chest
		{
			OFFSET 0.000000 8.438565 -0.680529 
			CHANNELS 3 Xrotation Zrotation Yrotation
			JOINT neck
			{
				OFFSET 0.000000 10.207942 -0.272212 
				CHANNELS 3 Xrotation Zrotation Yrotation
				JOINT head
				{
					OFFSET 0.000000 3.130431 0.000000 
					CHANNELS 3 Xrotation Zrotation Yrotation
					End Site
					{
						OFFSET 0.000000 3.130435 0.000000 
					}
				}
			}
			JOINT lCollar
			{
				OFFSET 3.470700 6.669187 -0.816635 
				CHANNELS 3 Yrotation Zrotation Xrotation
				JOINT lShldr
				{
					OFFSET 3.198488 0.000000 0.000000 
					CHANNELS 3 Zrotation Yrotation Xrotation
					JOINT lForeArm
					{
						OFFSET 10.139888 0.000000 0.000000 
						CHANNELS 3 Yrotation Zrotation Xrotation
						JOINT lHand
						{
							OFFSET 8.370511 0.000000 0.000000 
							CHANNELS 3 Zrotation Yrotation Xrotation
							End Site
							{
								OFFSET 4.083176 0.000000 0.000000 
							}
						}
					}
				}
			}
			JOINT rCollar
			{
				OFFSET -3.470700 6.669187 -0.816635 
				CHANNELS 3 Yrotation Zrotation Xrotation
				JOINT rShldr
				{
					OFFSET -3.198488 0.000000 0.000000 
					CHANNELS 3 Zrotation Yrotation Xrotation
					JOINT rForeArm
					{
						OFFSET -10.139888 0.000000 0.000000 
						CHANNELS 3 Yrotation Zrotation Xrotation
						JOINT rHand
						{
							OFFSET -8.370511 0.000000 0.000000 
							CHANNELS 3 Zrotation Yrotation Xrotation
							End Site
							{
								OFFSET -4.083176 0.000000 0.000000 
							}
						}
					}
				}
			}
		}
	}
	JOINT lThigh
	{
		OFFSET 5.308129 -1.633274 1.361059 
		CHANNELS 3 Xrotation Zrotation Yrotation
		JOINT lShin
		{
			OFFSET -2.041588 -20.007561 0.000000 
			CHANNELS 3 Xrotation Zrotation Yrotation
			JOINT lFoot
			{
				OFFSET 0.000000 -19.190928 -1.224953 
				CHANNELS 3 Xrotation Yrotation Zrotation
				End Site
				{
					OFFSET 0.000000 -2.449906 4.627600 
				}
			}
		}
	}
	JOINT rThigh
	{
		OFFSET -5.308129 -1.633274 1.361059 
		CHANNELS 3 Xrotation Zrotation Yrotation
		JOINT rShin
		{
			OFFSET 2.041588 -20.007561 0.000000 
			CHANNELS 3 Xrotation Zrotation Yrotation
			JOINT rFoot
			{
				OFFSET 0.000000 -19.190928 -1.224953 
				CHANNELS 3 Xrotation Yrotation Zrotation
				End Site
				{
					OFFSET 0.000000 -2.449906 4.627600 
				}
			}
		}
	}
}
MOTION
Frames: 6
Frame Time: 0.016667
-0.103734 52.505085 -0.499711 -9.856039 0.249648 10.507924 31.001457 0.751075 1.135139 0.068093 3.114986 -1.163164 1.611392 -2.082302 -0.120025 21.320518 -0.839742 -8.741293 -8.178099 -12.680655 -0.662810 -60.703335 1.725844 -6.610772 -30.087137 -5.000000 28.411844 -20.130816 -4.480500 21.279385 10.394296 13.244504 -0.705786 61.689632 20.288980 26.570829 45.167923 5.000000 7.137387 -22.564684 -2.467212 39.360954 15.007504 20.350710 9.061790 3.589395 -6.942962 -0.754901 -4.878038 -1.169673 -11.161817 19.702957 -7.460601 -19.979834 2.416205 2.072875 0.098327 -6.361178 -5.703256 9.287764 
-0.101838 52.507294 -0.538699 -9.743670 0.364281 10.996366 31.132942 0.819795 1.283148 0.105431 3.056481 -0.947994 1.679285 -2.022908 -0.118786 21.266678 -0.703663 -9.229254 -8.011042 -12.592886 -0.658281 -60.878986 1.596636 -6.542146 -30.306648 -5.000000 28.365265 -19.926653 -4.614983 20.998285 10.726078 13.224944 -0.704766 61.586102 21.548964 27.968403 44.676296 5.000000 5.915756 -22.767710 -2.840006 41.527508 14.607181 20.329920 8.680107 3.617312 -6.917396 -0.737979 -4.748753 -1.367492 -11.176012 19.674646 -7.412092 -20.436485 2.445959 2.052868 0.099914 -6.379129 -5.749059 9.288329 
-0.101247 52.509857 -0.574716 -9.621522 0.468935 11.484784 31.244465 0.870992 1.422445 0.142412 3.007720 -0.752359 1.767114 -1.993942 -0.123168 21.172426 -0.577649 -9.649027 -7.863867 -12.534374 -0.655260 -61.002415 1.542443 -6.533959 -30.470798 -5.000000 28.408669 -19.741251 -4.715377 20.660847 11.018551 13.185886 -0.702737 61.351452 22.597998 28.899050 44.177364 5.000000 5.003381 -22.957264 -3.390060 43.279102 14.212387 20.326036 8.274214 3.625449 -6.924181 -0.729317 -4.652629 -1.548577 -11.194778 19.643557 -7.392034 -20.880472 2.467211 2.073129 0.101112 -6.388044 -5.823291 9.276575 
-0.102078 52.512634 -0.607602 -9.499516 0.563617 11.983083 31.356230 0.933359 1.556673 0.160638 2.958946 -0.537223 1.874494 -1.974630 -0.126090 21.066418 -0.451943 -10.049206 -7.736342 -12.485613 -0.652743 -61.100174 1.532162 -6.558388 -30.594412 -5.000000 28.523039 -19.562376 -4.787276 20.296873 11.301016 13.127330 -0.699697 61.038902 23.492254 29.513914 43.680405 5.000000 4.291450 -23.154608 -4.050683 44.774315 13.813793 20.308392 7.863509 3.668605 -6.912411 -0.742654 -4.551141 -1.699786 -11.211179 19.621237 -7.352771 -21.339703 2.488110 2.093811 0.102309 -6.384498 -5.870234 9.277886 
-0.104133 52.514370 -0.637957 -9.373861 0.667465 12.471664 31.457663 0.982388 1.674719 0.187396 2.900380 -0.331831 1.981915 -1.974630 -0.126090 20.960371 -0.336139 -10.439673 -7.618583 -12.436854 -0.650225 -61.189293 1.532274 -6.599654 -30.692856 -5.000000 28.658756 -19.401737 -4.850487 19.933397 11.544299 13.059025 -0.696153 60.714706 24.330542 30.029640 43.237000 5.000000 3.626349 -23.446327 -4.701987 45.000000 13.433656 20.309578 7.479321 3.675513 -6.919796 -0.753523 -4.465365 -1.869016 -11.235609 19.576067 -7.314030 -21.798500 2.503258 2.090672 0.113075 -6.387392 -5.961050 9.268991 
-0.107361 52.514606 -0.666372 -9.238983 0.761381 12.950391 31.528997 1.022951 1.766536 0.241222 2.851561 -0.165943 2.040888 -1.995401 -0.132819 20.874237 -0.230178 -10.859484 -7.520133 -12.368590 -0.646699 -61.254406 1.573759 -6.730709 -30.651867 -5.000000 28.909859 -19.255783 -4.886092 19.635599 11.689571 12.961483 -0.691094 60.300224 24.922522 30.095623 42.997463 4.623864 3.234143 -24.007959 -5.271651 45.000000 13.051985 20.307459 7.094993 3.697961 -6.941112 -0.736185 -4.382255 -2.004464 -11.224415 19.531359 -7.274673 -22.227766 2.537825 2.094604 0.124608 -6.445356 -6.006008 9.258305 
